<svg width="24" height="24" viewBox="0 0 24 24" fill="none" xmlns="http://www.w3.org/2000/svg">
<path fill-rule="evenodd" clip-rule="evenodd" d="M8.67863 2.4296C8.86551 2.16049 9.17237 2 9.5 2H14.5C14.8276 2 15.1345 2.16049 15.3214 2.4296L17.523 5.6H20C21.6569 5.6 23 6.94316 23 8.6V19C23 20.6569 21.6569 22 20 22H4C2.34315 22 1 20.6569 1 19V8.6C1 6.94315 2.34314 5.6 4 5.6H6.47697L8.67863 2.4296ZM10.023 4L7.82137 7.1704C7.63449 7.43951 7.32763 7.6 7 7.6H4C3.44772 7.6 3 8.04771 3 8.6V19C3 19.5523 3.44771 20 4 20H20C20.5523 20 21 19.5523 21 19V8.6C21 8.04771 20.5523 7.6 20 7.6H17C16.6724 7.6 16.3655 7.43951 16.1786 7.1704L13.977 4H10.023Z" fill="#393939"/>
<path fill-rule="evenodd" clip-rule="evenodd" d="M12 10C10.3431 10 9 11.3431 9 13C9 14.6569 10.3431 16 12 16C13.6569 16 15 14.6569 15 13C15 11.3431 13.6569 10 12 10ZM7 13C7 10.2386 9.23858 8 12 8C14.7614 8 17 10.2386 17 13C17 15.7614 14.7614 18 12 18C9.23858 18 7 15.7614 7 13Z" fill="#393939"/>
</svg>
