<svg width="24" height="24" viewBox="0 0 24 24" fill="none" xmlns="http://www.w3.org/2000/svg">
<path fill-rule="evenodd" clip-rule="evenodd" d="M1 12C1 5.92487 5.92487 1 12 1C18.0751 1 23 5.92486 23 12C23 18.0751 18.0751 23 12 23H3.10288C1.8137 23 1.12505 21.4812 1.97468 20.5115M1.97469 20.5115L3.41072 18.8725C1.90286 16.9901 1 14.5996 1 12M12 3C7.02943 3 3 7.02943 3 12C3 14.3972 3.93588 16.5736 5.46419 18.1874C5.81919 18.5622 5.83048 19.1457 5.49025 19.534L4.20576 21H12C16.9705 21 21 16.9705 21 12C21 7.02944 16.9705 3 12 3Z" fill="#393939"/>
<path fill-rule="evenodd" clip-rule="evenodd" d="M5 11.5C5 10.6716 5.67157 10 6.5 10C7.32843 10 8 10.6716 8 11.5C8 12.3284 7.32843 13 6.5 13C5.67157 13 5 12.3284 5 11.5Z" fill="#393939"/>
<path fill-rule="evenodd" clip-rule="evenodd" d="M10 11.5C10 10.6716 10.6716 10 11.5 10C12.3284 10 13 10.6716 13 11.5C13 12.3284 12.3284 13 11.5 13C10.6716 13 10 12.3284 10 11.5Z" fill="#393939"/>
<path fill-rule="evenodd" clip-rule="evenodd" d="M15 11.5C15 10.6716 15.6716 10 16.5 10C17.3284 10 18 10.6716 18 11.5C18 12.3284 17.3284 13 16.5 13C15.6716 13 15 12.3284 15 11.5Z" fill="#393939"/>
</svg>
