<svg width="24" height="24" viewBox="0 0 24 24" fill="none" xmlns="http://www.w3.org/2000/svg">
<path fill-rule="evenodd" clip-rule="evenodd" d="M5.84922 4.9804C6.20936 4.37266 6.86338 4 7.5698 4H16.4302C17.1366 4 17.7906 4.37268 18.1508 4.98034L21.5809 10.7686C21.8553 11.2316 22 11.76 22 12.2981V17C22 18.6569 20.6569 20 19 20H5C3.34315 20 2 18.6569 2 17V12.2981C2 11.76 2.14473 11.2317 2.41913 10.7687M4 13V17C4 17.5523 4.44771 18 5 18H19C19.5523 18 20 17.5523 20 17V13H16.0047L14.5252 14.6644C14.3354 14.8779 14.0634 15 13.7778 15H10.2222C9.93656 15 9.66456 14.8779 9.47479 14.6644L7.99537 13H4ZM19.3932 11H15.5556C15.27 11 14.998 11.1221 14.8082 11.3356L13.3287 13H10.6713L9.19185 11.3356C9.00208 11.1221 8.73008 11 8.44444 11H4.60685L7.5698 6H16.4302L19.3932 11ZM2.41913 10.7687L5.84922 4.9804L5.54131 5.5" fill="#393939"/>
</svg>
