<svg width="24" height="24" viewBox="0 0 24 24" fill="none" xmlns="http://www.w3.org/2000/svg">
<path fill-rule="evenodd" clip-rule="evenodd" d="M9 4C7.34315 4 6 5.34315 6 7C6 8.65685 7.34315 10 9 10C10.6569 10 12 8.65685 12 7C12 5.34315 10.6569 4 9 4ZM4 7C4 4.23858 6.23858 2 9 2C11.7614 2 14 4.23858 14 7C14 9.76142 11.7614 12 9 12C6.23858 12 4 9.76142 4 7Z" fill="#393939"/>
<path fill-rule="evenodd" clip-rule="evenodd" d="M4 16C3.44771 16 3 16.4477 3 17V21C3 21.5523 2.55228 22 2 22C1.44772 22 1 21.5523 1 21V17C1 15.3431 2.34315 14 4 14H14C15.6569 14 17 15.3431 17 17V21C17 21.5523 16.5523 22 16 22C15.4477 22 15 21.5523 15 21V17C15 16.4477 14.5523 16 14 16H4Z" fill="#393939"/>
<path fill-rule="evenodd" clip-rule="evenodd" d="M15.0312 2.75195C15.1682 2.21693 15.713 1.89426 16.248 2.03125C17.3236 2.30663 18.2768 2.93213 18.9575 3.80914C19.6383 4.68615 20.0078 5.76479 20.0078 6.875C20.0078 7.98521 19.6383 9.06384 18.9575 9.94086C18.2768 10.8179 17.3236 11.4434 16.248 11.7187C15.713 11.8557 15.1682 11.5331 15.0312 10.998C14.8943 10.463 15.2169 9.91824 15.752 9.78125C16.3972 9.61603 16.9692 9.24073 17.3776 8.71452C17.7861 8.18831 18.0078 7.54113 18.0078 6.875C18.0078 6.20887 17.7861 5.56168 17.3776 5.03548C16.9692 4.50926 16.3972 4.13397 15.752 3.96875C15.2169 3.83176 14.8943 3.28698 15.0312 2.75195Z" fill="#393939"/>
<path fill-rule="evenodd" clip-rule="evenodd" d="M18 15C18 14.4477 18.4477 14 19 14H20C21.6569 14 23 15.3431 23 17V21C23 21.5523 22.5523 22 22 22C21.4477 22 21 21.5523 21 21V17C21 16.4477 20.5523 16 20 16H19C18.4477 16 18 15.5523 18 15Z" fill="#393939"/>
</svg>
