<svg width="24" height="24" viewBox="0 0 24 24" fill="none" xmlns="http://www.w3.org/2000/svg">
<path d="M11.4454 20.7608L3.57617 12.5663C1.35964 10.2582 1.49922 6.4736 3.87922 4.34929C6.24035 2.24181 9.82044 2.65105 11.6863 5.24171L12 5.67724L12.3137 5.24171C14.1796 2.65105 17.7596 2.24181 20.1208 4.34929C22.5008 6.4736 22.6404 10.2582 20.4238 12.5663L12.5546 20.7608C12.2483 21.0797 11.7517 21.0797 11.4454 20.7608Z" fill="#393939"/>
<path fill-rule="evenodd" clip-rule="evenodd" d="M10.8748 5.82613C9.35021 3.70925 6.45621 3.38952 4.5451 5.09533L4.5451 5.09533C2.59009 6.84031 2.4712 9.97197 4.29742 11.8736L4.29743 11.8737L12 19.8946L19.7025 11.8737L19.7025 11.8736C21.5288 9.97197 21.4099 6.84031 19.4549 5.09534C17.5437 3.38952 14.6498 3.70925 13.1251 5.82614L13.1251 5.82616L12.8114 6.26169C12.6235 6.52261 12.3215 6.67724 12 6.67724C11.6784 6.67724 11.3765 6.52261 11.1886 6.26169L10.8749 5.82616L10.8748 5.82613ZM12 4.04596C9.69469 1.53735 5.82571 1.27148 3.21331 3.60324C0.408314 6.10689 0.248048 10.5444 2.85488 13.2589C2.85488 13.2589 2.85488 13.2589 2.85488 13.259L10.7241 21.4534L10.7242 21.4535C11.424 22.1821 12.576 22.1821 13.2758 21.4535L13.2759 21.4534L21.145 13.259C21.1451 13.259 21.1451 13.2589 21.1451 13.2589C23.752 10.5444 23.5917 6.10688 20.7867 3.60324L20.1208 4.34929L20.7867 3.60323C18.1742 1.27148 14.3053 1.53735 12 4.04596Z" fill="#393939"/>
</svg>
