<svg width="24" height="24" viewBox="0 0 24 24" fill="none" xmlns="http://www.w3.org/2000/svg">
<path fill-rule="evenodd" clip-rule="evenodd" d="M10.8748 5.82613C9.35021 3.70925 6.45621 3.38952 4.5451 5.09533C2.5901 6.8403 2.4712 9.97197 4.29742 11.8736L12 19.8946L19.7025 11.8737C21.5288 9.97199 21.4099 6.84031 19.4549 5.09534C17.5437 3.38952 14.6498 3.70925 13.1251 5.82614L12.8114 6.26169C12.6235 6.52261 12.3215 6.67724 12 6.67724C11.6784 6.67724 11.3765 6.52261 11.1886 6.26169L10.8748 5.82613ZM12 4.04596C9.69469 1.53735 5.82571 1.27148 3.21331 3.60324C0.408314 6.10689 0.248048 10.5444 2.85488 13.2589L10.7241 21.4534C11.4239 22.1821 12.576 22.1821 13.2758 21.4535L21.145 13.259C23.7519 10.5444 23.5917 6.10688 20.7867 3.60324C18.1742 1.27149 14.3053 1.53735 12 4.04596Z" fill="#393939"/>
</svg>
