<svg width="24" height="24" viewBox="0 0 24 24" fill="none" xmlns="http://www.w3.org/2000/svg">
<path fill-rule="evenodd" clip-rule="evenodd" d="M12 3C9.01767 3 6.6 5.41766 6.6 8.4V9.45798C6.6 11.7612 5.98498 14.0191 4.82331 16H19.1766C18.015 14.0191 17.4 11.7612 17.4 9.45798V8.4C17.4 5.41766 14.9823 3 12 3ZM4.6 8.4C4.6 4.31309 7.9131 1 12 1C16.0869 1 19.4 4.31308 19.4 8.4V9.45798C19.4 11.5655 20.0092 13.6281 21.1541 15.3976C21.1541 15.3976 21.1541 15.3976 21.1541 15.3976L21.8395 16.4567C22.0386 16.7643 22.0535 17.156 21.8784 17.4779C21.7034 17.7997 21.3664 18 21 18H3C2.63366 18 2.29664 17.7997 2.12157 17.4779C1.94651 17.1561 1.96142 16.7643 2.16044 16.4567L2.84583 15.3975C3.99082 13.6282 4.6 11.5655 4.6 9.45798V8.4Z" fill="#393939"/>
<path fill-rule="evenodd" clip-rule="evenodd" d="M10.3311 20.1456C10.7416 19.7761 11.3739 19.8094 11.7433 20.22C11.8805 20.3724 12.1195 20.3724 12.2567 20.22C12.6262 19.8094 13.2584 19.7761 13.669 20.1456C14.0795 20.515 14.1128 21.1473 13.7433 21.5579C12.8117 22.5931 11.1883 22.5931 10.2567 21.5579C9.88725 21.1473 9.92054 20.515 10.3311 20.1456Z" fill="#393939"/>
<path d="M21 2L4 22" stroke="#393939" stroke-width="2" stroke-linecap="round"/>
</svg>
