<svg width="24" height="24" viewBox="0 0 24 24" fill="none" xmlns="http://www.w3.org/2000/svg">
<path fill-rule="evenodd" clip-rule="evenodd" d="M10.75 3C6.46979 3 3 6.46979 3 10.75C3 15.0302 6.46979 18.5 10.75 18.5C15.0302 18.5 18.5 15.0302 18.5 10.75C18.5 6.46979 15.0302 3 10.75 3ZM1 10.75C1 5.36523 5.36523 1 10.75 1C16.1348 1 20.5 5.36523 20.5 10.75C20.5 13.0822 19.6811 15.2232 18.3153 16.901L22.7071 21.2929C23.0976 21.6834 23.0976 22.3166 22.7071 22.7071C22.3166 23.0976 21.6834 23.0976 21.2929 22.7071L16.901 18.3153C15.2232 19.6811 13.0822 20.5 10.75 20.5C5.36523 20.5 1 16.1348 1 10.75Z" fill="#393939"/>
</svg>
