<svg width="24" height="24" viewBox="0 0 24 24" fill="none" xmlns="http://www.w3.org/2000/svg">
<g clip-path="url(#clip0_498_12175)">
<path d="M11.9769 4.13651e-05C18.5813 -0.0172207 23.9866 5.37046 23.9981 11.9837C24.0096 18.6104 18.6639 23.9751 12.0231 24C5.39183 24.0231 0 18.6335 0 11.9799C0 5.39923 5.37838 0.0173034 11.9769 4.13651e-05ZM22.1803 11.9799C22.1592 6.3659 17.6013 1.83941 11.9846 1.85667C6.33915 1.87393 1.83699 6.39084 1.85044 12.024C1.86389 17.6495 6.39872 22.1626 12.0288 22.153C17.6359 22.1434 22.2014 17.569 22.1803 11.9799Z" fill="#393939"/>
<path d="M12.9935 9.73963C12.9935 11.1283 13.0011 12.5188 12.9896 13.9075C12.9839 14.6229 12.467 15.0583 11.804 14.9413C11.2948 14.8511 11.0104 14.4503 11.0104 13.7981C11.0085 11.3066 11.0104 8.81516 11.0104 6.32367C11.0104 6.06857 11.0027 5.81156 11.0104 5.55647C11.0316 4.9427 11.4159 4.538 11.9827 4.52841C12.563 4.51691 12.9839 4.93503 12.9896 5.57181C13.0011 6.96044 12.9935 8.351 12.9935 9.73963Z" fill="#393939"/>
<path d="M12 16.5505C12.661 16.5505 13.199 17.0933 13.1856 17.7415C13.1721 18.3726 12.6399 18.8904 12.0039 18.8885C11.3525 18.8885 10.8029 18.3342 10.8163 17.6936C10.8298 17.0626 11.3601 16.5505 12 16.5505Z" fill="#393939"/>
</g>
<defs>
<clipPath id="clip0_498_12175">
<rect width="24" height="24" fill="white"/>
</clipPath>
</defs>
</svg>
